# WaveFront *.obj file (generated by Cinema 4D)

mtllib ./plane.mtl

v -5.616260 -1.489197 7.688638
v -5.616260 -0.127285 7.688638
v 5.616260 -1.489197 7.688638
v 5.616260 -0.127285 7.688638
v 5.616260 -1.489197 -7.688638
v 5.616260 -0.127285 -7.688638
v -5.616260 -1.489197 -7.688638
v -5.616260 -0.127285 -7.688638
# 8 vertices

vn 0.000000 0.000000 1.000000
vn 1.000000 0.000000 0.000000
vn 0.000000 0.000000 -1.000000
vn -1.000000 0.000000 0.000000
vn 0.000000 1.000000 0.000000
vn 0.000000 -1.000000 0.000000
# 6 normals

vt 0.000000 0.000000 0.000000
vt 0.000000 1.000000 0.000000
vt 1.000000 1.000000 0.000000
vt 1.000000 0.000000 0.000000
# 4 texture coordinates

o Cube
usemtl default
f 3/4/1 4/3/1 2/2/1 1/1/1
f 5/4/2 6/3/2 4/2/2 3/1/2
f 7/4/3 8/3/3 6/2/3 5/1/3
f 1/4/4 2/3/4 8/2/4 7/1/4
f 4/4/5 6/3/5 8/2/5 2/1/5
f 5/4/6 3/3/6 1/2/6 7/1/6

